<mxfile host="app.diagrams.net" agent="Mozilla/5.0 (Windows NT 10.0; Win64; x64) AppleWebKit/537.36 (KHTML, like Gecko) Chrome/131.0.0.0 Safari/537.36" version="24.8.9" pages="4">
  <diagram name="Robot inicial" id="Ny4vs3DGVAd-yfsMKJ4n">
    <mxGraphModel dx="635" dy="395" grid="1" gridSize="10" guides="1" tooltips="1" connect="1" arrows="1" fold="1" page="1" pageScale="1" pageWidth="1100" pageHeight="850" math="0" shadow="0">
      <root>
        <mxCell id="qbFUbUMw8g4eD7Utf5S0-0" />
        <mxCell id="qbFUbUMw8g4eD7Utf5S0-1" parent="qbFUbUMw8g4eD7Utf5S0-0" />
        <mxCell id="qbFUbUMw8g4eD7Utf5S0-2" value="" style="rounded=1;whiteSpace=wrap;html=1;fillColor=#dae8fc;strokeColor=#6c8ebf;" parent="qbFUbUMw8g4eD7Utf5S0-1" vertex="1">
          <mxGeometry x="400" y="276" width="50" height="20" as="geometry" />
        </mxCell>
        <mxCell id="qbFUbUMw8g4eD7Utf5S0-3" value="" style="rounded=1;whiteSpace=wrap;html=1;fillColor=#dae8fc;strokeColor=#6c8ebf;" parent="qbFUbUMw8g4eD7Utf5S0-1" vertex="1">
          <mxGeometry x="390" y="286" width="20" height="144" as="geometry" />
        </mxCell>
        <mxCell id="qbFUbUMw8g4eD7Utf5S0-4" value="" style="rounded=1;whiteSpace=wrap;html=1;fillColor=#d5e8d4;strokeColor=#82b366;" parent="qbFUbUMw8g4eD7Utf5S0-1" vertex="1">
          <mxGeometry x="738" y="276" width="100" height="20" as="geometry" />
        </mxCell>
        <mxCell id="qbFUbUMw8g4eD7Utf5S0-5" value="" style="rounded=1;whiteSpace=wrap;html=1;fillColor=#dae8fc;strokeColor=#6c8ebf;" parent="qbFUbUMw8g4eD7Utf5S0-1" vertex="1">
          <mxGeometry x="450" y="276" width="144" height="20" as="geometry" />
        </mxCell>
        <mxCell id="qbFUbUMw8g4eD7Utf5S0-6" value="" style="rounded=1;whiteSpace=wrap;html=1;fillColor=#dae8fc;strokeColor=#6c8ebf;" parent="qbFUbUMw8g4eD7Utf5S0-1" vertex="1">
          <mxGeometry x="320" y="430" width="160" height="130" as="geometry" />
        </mxCell>
        <mxCell id="qbFUbUMw8g4eD7Utf5S0-7" value="" style="rounded=0;whiteSpace=wrap;html=1;fillColor=#f8cecc;strokeColor=#b85450;" parent="qbFUbUMw8g4eD7Utf5S0-1" vertex="1">
          <mxGeometry x="370" y="420" width="60" height="20" as="geometry" />
        </mxCell>
        <mxCell id="qbFUbUMw8g4eD7Utf5S0-8" value="" style="rounded=1;whiteSpace=wrap;html=1;fillColor=#dae8fc;strokeColor=#6c8ebf;" parent="qbFUbUMw8g4eD7Utf5S0-1" vertex="1">
          <mxGeometry x="594" y="276" width="144" height="20" as="geometry" />
        </mxCell>
        <mxCell id="qbFUbUMw8g4eD7Utf5S0-9" value="" style="rounded=0;whiteSpace=wrap;html=1;fillColor=#f8cecc;strokeColor=#b85450;" parent="qbFUbUMw8g4eD7Utf5S0-1" vertex="1">
          <mxGeometry x="728" y="266" width="20" height="40" as="geometry" />
        </mxCell>
        <mxCell id="qbFUbUMw8g4eD7Utf5S0-10" value="z0" style="endArrow=classic;html=1;rounded=0;" parent="qbFUbUMw8g4eD7Utf5S0-1" edge="1">
          <mxGeometry width="50" height="50" relative="1" as="geometry">
            <mxPoint x="400" y="410" as="sourcePoint" />
            <mxPoint x="400" y="370" as="targetPoint" />
          </mxGeometry>
        </mxCell>
        <mxCell id="qbFUbUMw8g4eD7Utf5S0-11" value="130" style="endArrow=classic;startArrow=classic;html=1;rounded=0;" parent="qbFUbUMw8g4eD7Utf5S0-1" edge="1">
          <mxGeometry width="50" height="50" relative="1" as="geometry">
            <mxPoint x="300" y="560" as="sourcePoint" />
            <mxPoint x="300" y="430" as="targetPoint" />
          </mxGeometry>
        </mxCell>
        <mxCell id="qbFUbUMw8g4eD7Utf5S0-12" value="144" style="endArrow=classic;startArrow=classic;html=1;rounded=0;" parent="qbFUbUMw8g4eD7Utf5S0-1" edge="1">
          <mxGeometry width="50" height="50" relative="1" as="geometry">
            <mxPoint x="300" y="430" as="sourcePoint" />
            <mxPoint x="300" y="310" as="targetPoint" />
          </mxGeometry>
        </mxCell>
        <mxCell id="qbFUbUMw8g4eD7Utf5S0-13" value="50" style="endArrow=classic;startArrow=classic;html=1;rounded=0;" parent="qbFUbUMw8g4eD7Utf5S0-1" edge="1">
          <mxGeometry width="50" height="50" relative="1" as="geometry">
            <mxPoint x="400" y="260" as="sourcePoint" />
            <mxPoint x="450" y="260" as="targetPoint" />
          </mxGeometry>
        </mxCell>
        <mxCell id="qbFUbUMw8g4eD7Utf5S0-14" value="144" style="endArrow=classic;startArrow=classic;html=1;rounded=0;" parent="qbFUbUMw8g4eD7Utf5S0-1" edge="1">
          <mxGeometry width="50" height="50" relative="1" as="geometry">
            <mxPoint x="450" y="260" as="sourcePoint" />
            <mxPoint x="594" y="260" as="targetPoint" />
          </mxGeometry>
        </mxCell>
        <mxCell id="qbFUbUMw8g4eD7Utf5S0-15" value="z4" style="endArrow=classic;html=1;rounded=0;exitX=1;exitY=0.5;exitDx=0;exitDy=0;" parent="qbFUbUMw8g4eD7Utf5S0-1" source="qbFUbUMw8g4eD7Utf5S0-9" edge="1">
          <mxGeometry width="50" height="50" relative="1" as="geometry">
            <mxPoint x="740" y="286" as="sourcePoint" />
            <mxPoint x="780" y="286" as="targetPoint" />
            <Array as="points" />
          </mxGeometry>
        </mxCell>
        <mxCell id="qbFUbUMw8g4eD7Utf5S0-16" value="z1" style="shape=orEllipse;perimeter=ellipsePerimeter;whiteSpace=wrap;html=1;backgroundOutline=1;fillColor=#f8cecc;strokeColor=#b85450;labelBackgroundColor=default;" parent="qbFUbUMw8g4eD7Utf5S0-1" vertex="1">
          <mxGeometry x="380" y="410" width="40" height="40" as="geometry" />
        </mxCell>
        <mxCell id="qbFUbUMw8g4eD7Utf5S0-17" value="z2" style="shape=orEllipse;perimeter=ellipsePerimeter;whiteSpace=wrap;html=1;backgroundOutline=1;fillColor=#f8cecc;strokeColor=#b85450;labelBackgroundColor=default;" parent="qbFUbUMw8g4eD7Utf5S0-1" vertex="1">
          <mxGeometry x="430" y="266" width="40" height="40" as="geometry" />
        </mxCell>
        <mxCell id="qbFUbUMw8g4eD7Utf5S0-18" value="z3" style="shape=orEllipse;perimeter=ellipsePerimeter;whiteSpace=wrap;html=1;backgroundOutline=1;fillColor=#f8cecc;strokeColor=#b85450;labelBackgroundColor=default;" parent="qbFUbUMw8g4eD7Utf5S0-1" vertex="1">
          <mxGeometry x="574" y="266" width="40" height="40" as="geometry" />
        </mxCell>
        <mxCell id="qbFUbUMw8g4eD7Utf5S0-21" value="144" style="endArrow=classic;startArrow=classic;html=1;rounded=0;endFill=1;startFill=1;" parent="qbFUbUMw8g4eD7Utf5S0-1" edge="1">
          <mxGeometry width="50" height="50" relative="1" as="geometry">
            <mxPoint x="594" y="260" as="sourcePoint" />
            <mxPoint x="738" y="260" as="targetPoint" />
          </mxGeometry>
        </mxCell>
        <mxCell id="3vfzfne6z-942LUkgVs6-1" value="" style="endArrow=none;html=1;rounded=0;" edge="1" parent="qbFUbUMw8g4eD7Utf5S0-1">
          <mxGeometry width="50" height="50" relative="1" as="geometry">
            <mxPoint x="410" y="429.81" as="sourcePoint" />
            <mxPoint x="452" y="430" as="targetPoint" />
          </mxGeometry>
        </mxCell>
        <mxCell id="3vfzfne6z-942LUkgVs6-2" value="" style="endArrow=classic;html=1;rounded=0;" edge="1" parent="qbFUbUMw8g4eD7Utf5S0-1">
          <mxGeometry width="50" height="50" relative="1" as="geometry">
            <mxPoint x="450" y="430" as="sourcePoint" />
            <mxPoint x="450" y="310" as="targetPoint" />
          </mxGeometry>
        </mxCell>
        <mxCell id="3vfzfne6z-942LUkgVs6-4" value="&lt;font style=&quot;font-size: 10px;&quot;&gt;xy1&lt;/font&gt;" style="text;html=1;align=center;verticalAlign=middle;whiteSpace=wrap;rounded=0;" vertex="1" parent="qbFUbUMw8g4eD7Utf5S0-1">
          <mxGeometry x="430" y="360" width="60" height="30" as="geometry" />
        </mxCell>
        <mxCell id="3vfzfne6z-942LUkgVs6-5" value="&lt;font style=&quot;font-size: 10px;&quot;&gt;xy2&lt;/font&gt;" style="text;html=1;align=center;verticalAlign=middle;whiteSpace=wrap;rounded=0;" vertex="1" parent="qbFUbUMw8g4eD7Utf5S0-1">
          <mxGeometry x="492" y="226" width="60" height="30" as="geometry" />
        </mxCell>
        <mxCell id="3vfzfne6z-942LUkgVs6-6" value="&lt;font style=&quot;font-size: 10px;&quot;&gt;xy3&lt;/font&gt;" style="text;html=1;align=center;verticalAlign=middle;whiteSpace=wrap;rounded=0;" vertex="1" parent="qbFUbUMw8g4eD7Utf5S0-1">
          <mxGeometry x="638" y="227" width="60" height="30" as="geometry" />
        </mxCell>
      </root>
    </mxGraphModel>
  </diagram>
  <diagram name="Robot Modelo" id="JLq60dZEtEeXuQgpwOKY">
    <mxGraphModel dx="330" dy="133" grid="1" gridSize="10" guides="1" tooltips="1" connect="1" arrows="1" fold="1" page="1" pageScale="1" pageWidth="1100" pageHeight="850" math="0" shadow="0">
      <root>
        <mxCell id="emqvxlYwTOZ11juxNe8C-0" />
        <mxCell id="emqvxlYwTOZ11juxNe8C-1" parent="emqvxlYwTOZ11juxNe8C-0" />
        <mxCell id="emqvxlYwTOZ11juxNe8C-2" value="" style="rounded=1;whiteSpace=wrap;html=1;fillColor=#dae8fc;strokeColor=#6c8ebf;" vertex="1" parent="emqvxlYwTOZ11juxNe8C-1">
          <mxGeometry x="400" y="276" width="50" height="20" as="geometry" />
        </mxCell>
        <mxCell id="emqvxlYwTOZ11juxNe8C-3" value="" style="rounded=1;whiteSpace=wrap;html=1;fillColor=#dae8fc;strokeColor=#6c8ebf;" vertex="1" parent="emqvxlYwTOZ11juxNe8C-1">
          <mxGeometry x="390" y="286" width="20" height="144" as="geometry" />
        </mxCell>
        <mxCell id="emqvxlYwTOZ11juxNe8C-4" value="" style="rounded=1;whiteSpace=wrap;html=1;fillColor=#d5e8d4;strokeColor=#82b366;" vertex="1" parent="emqvxlYwTOZ11juxNe8C-1">
          <mxGeometry x="738" y="276" width="100" height="20" as="geometry" />
        </mxCell>
        <mxCell id="emqvxlYwTOZ11juxNe8C-5" value="" style="rounded=1;whiteSpace=wrap;html=1;fillColor=#dae8fc;strokeColor=#6c8ebf;" vertex="1" parent="emqvxlYwTOZ11juxNe8C-1">
          <mxGeometry x="450" y="276" width="144" height="20" as="geometry" />
        </mxCell>
        <mxCell id="emqvxlYwTOZ11juxNe8C-6" value="" style="rounded=1;whiteSpace=wrap;html=1;fillColor=#dae8fc;strokeColor=#6c8ebf;" vertex="1" parent="emqvxlYwTOZ11juxNe8C-1">
          <mxGeometry x="320" y="430" width="160" height="130" as="geometry" />
        </mxCell>
        <mxCell id="emqvxlYwTOZ11juxNe8C-7" value="" style="rounded=0;whiteSpace=wrap;html=1;fillColor=#f8cecc;strokeColor=#b85450;" vertex="1" parent="emqvxlYwTOZ11juxNe8C-1">
          <mxGeometry x="370" y="420" width="60" height="20" as="geometry" />
        </mxCell>
        <mxCell id="emqvxlYwTOZ11juxNe8C-8" value="" style="rounded=1;whiteSpace=wrap;html=1;fillColor=#dae8fc;strokeColor=#6c8ebf;" vertex="1" parent="emqvxlYwTOZ11juxNe8C-1">
          <mxGeometry x="594" y="276" width="144" height="20" as="geometry" />
        </mxCell>
        <mxCell id="emqvxlYwTOZ11juxNe8C-9" value="" style="rounded=0;whiteSpace=wrap;html=1;fillColor=#f8cecc;strokeColor=#b85450;" vertex="1" parent="emqvxlYwTOZ11juxNe8C-1">
          <mxGeometry x="728" y="266" width="20" height="40" as="geometry" />
        </mxCell>
        <mxCell id="emqvxlYwTOZ11juxNe8C-10" value="z0" style="endArrow=classic;html=1;rounded=0;" edge="1" parent="emqvxlYwTOZ11juxNe8C-1">
          <mxGeometry width="50" height="50" relative="1" as="geometry">
            <mxPoint x="400" y="410" as="sourcePoint" />
            <mxPoint x="400" y="370" as="targetPoint" />
          </mxGeometry>
        </mxCell>
        <mxCell id="emqvxlYwTOZ11juxNe8C-11" value="130" style="endArrow=classic;startArrow=classic;html=1;rounded=0;" edge="1" parent="emqvxlYwTOZ11juxNe8C-1">
          <mxGeometry width="50" height="50" relative="1" as="geometry">
            <mxPoint x="300" y="560" as="sourcePoint" />
            <mxPoint x="300" y="430" as="targetPoint" />
          </mxGeometry>
        </mxCell>
        <mxCell id="emqvxlYwTOZ11juxNe8C-12" value="144" style="endArrow=classic;startArrow=classic;html=1;rounded=0;" edge="1" parent="emqvxlYwTOZ11juxNe8C-1">
          <mxGeometry width="50" height="50" relative="1" as="geometry">
            <mxPoint x="300" y="430" as="sourcePoint" />
            <mxPoint x="300" y="310" as="targetPoint" />
          </mxGeometry>
        </mxCell>
        <mxCell id="emqvxlYwTOZ11juxNe8C-13" value="50" style="endArrow=classic;startArrow=classic;html=1;rounded=0;" edge="1" parent="emqvxlYwTOZ11juxNe8C-1">
          <mxGeometry width="50" height="50" relative="1" as="geometry">
            <mxPoint x="400" y="260" as="sourcePoint" />
            <mxPoint x="450" y="260" as="targetPoint" />
          </mxGeometry>
        </mxCell>
        <mxCell id="emqvxlYwTOZ11juxNe8C-14" value="144" style="endArrow=classic;startArrow=classic;html=1;rounded=0;" edge="1" parent="emqvxlYwTOZ11juxNe8C-1">
          <mxGeometry width="50" height="50" relative="1" as="geometry">
            <mxPoint x="450" y="260" as="sourcePoint" />
            <mxPoint x="594" y="260" as="targetPoint" />
          </mxGeometry>
        </mxCell>
        <mxCell id="emqvxlYwTOZ11juxNe8C-16" value="z4" style="endArrow=classic;html=1;rounded=0;exitX=1;exitY=0.5;exitDx=0;exitDy=0;" edge="1" parent="emqvxlYwTOZ11juxNe8C-1" source="emqvxlYwTOZ11juxNe8C-9">
          <mxGeometry width="50" height="50" relative="1" as="geometry">
            <mxPoint x="740" y="286" as="sourcePoint" />
            <mxPoint x="780" y="286" as="targetPoint" />
            <Array as="points" />
          </mxGeometry>
        </mxCell>
        <mxCell id="emqvxlYwTOZ11juxNe8C-17" value="z1" style="shape=orEllipse;perimeter=ellipsePerimeter;whiteSpace=wrap;html=1;backgroundOutline=1;fillColor=#f8cecc;strokeColor=#b85450;labelBackgroundColor=default;" vertex="1" parent="emqvxlYwTOZ11juxNe8C-1">
          <mxGeometry x="380" y="410" width="40" height="40" as="geometry" />
        </mxCell>
        <mxCell id="emqvxlYwTOZ11juxNe8C-18" value="z2" style="shape=orEllipse;perimeter=ellipsePerimeter;whiteSpace=wrap;html=1;backgroundOutline=1;fillColor=#f8cecc;strokeColor=#b85450;labelBackgroundColor=default;" vertex="1" parent="emqvxlYwTOZ11juxNe8C-1">
          <mxGeometry x="430" y="266" width="40" height="40" as="geometry" />
        </mxCell>
        <mxCell id="emqvxlYwTOZ11juxNe8C-19" value="z3" style="shape=orEllipse;perimeter=ellipsePerimeter;whiteSpace=wrap;html=1;backgroundOutline=1;fillColor=#f8cecc;strokeColor=#b85450;labelBackgroundColor=default;" vertex="1" parent="emqvxlYwTOZ11juxNe8C-1">
          <mxGeometry x="574" y="266" width="40" height="40" as="geometry" />
        </mxCell>
        <mxCell id="MKcAdbZc0ZUTMHucmN8z-0" value="T1" style="endArrow=none;html=1;rounded=0;exitX=0.502;exitY=0.495;exitDx=0;exitDy=0;exitPerimeter=0;entryX=0.498;entryY=0.495;entryDx=0;entryDy=0;entryPerimeter=0;" edge="1" parent="emqvxlYwTOZ11juxNe8C-1" source="emqvxlYwTOZ11juxNe8C-17" target="emqvxlYwTOZ11juxNe8C-18">
          <mxGeometry width="50" height="50" relative="1" as="geometry">
            <mxPoint x="490" y="420" as="sourcePoint" />
            <mxPoint x="580" y="420" as="targetPoint" />
          </mxGeometry>
        </mxCell>
        <mxCell id="JJ2KJQA7IF1ZhLUbpcBQ-0" value="A1 = sqrt(144^2+50^2)" style="endArrow=blockThin;html=1;rounded=0;exitX=0.502;exitY=0.495;exitDx=0;exitDy=0;exitPerimeter=0;entryX=0.498;entryY=0.495;entryDx=0;entryDy=0;entryPerimeter=0;startArrow=blockThin;startFill=1;endFill=1;" edge="1" parent="emqvxlYwTOZ11juxNe8C-1">
          <mxGeometry x="0.1925" y="-61" width="50" height="50" relative="1" as="geometry">
            <mxPoint x="413" y="436" as="sourcePoint" />
            <mxPoint x="463" y="292" as="targetPoint" />
            <mxPoint as="offset" />
          </mxGeometry>
        </mxCell>
        <mxCell id="dUwF36JrPIe3rAWJK66I-0" value="144" style="endArrow=classic;startArrow=classic;html=1;rounded=0;endFill=1;startFill=1;" edge="1" parent="emqvxlYwTOZ11juxNe8C-1">
          <mxGeometry width="50" height="50" relative="1" as="geometry">
            <mxPoint x="594" y="260" as="sourcePoint" />
            <mxPoint x="738" y="260" as="targetPoint" />
          </mxGeometry>
        </mxCell>
      </root>
    </mxGraphModel>
  </diagram>
  <diagram name="Robot extendido" id="0PknV8slN1T9c9Iy5URj">
    <mxGraphModel dx="396" dy="160" grid="1" gridSize="10" guides="1" tooltips="1" connect="1" arrows="1" fold="1" page="1" pageScale="1" pageWidth="1100" pageHeight="850" math="0" shadow="0">
      <root>
        <mxCell id="rxWHiTYlrlsDjyi4Nc8P-0" />
        <mxCell id="rxWHiTYlrlsDjyi4Nc8P-1" parent="rxWHiTYlrlsDjyi4Nc8P-0" />
        <mxCell id="rxWHiTYlrlsDjyi4Nc8P-2" value="" style="rounded=1;whiteSpace=wrap;html=1;fillColor=#dae8fc;strokeColor=#6c8ebf;direction=south;" vertex="1" parent="rxWHiTYlrlsDjyi4Nc8P-1">
          <mxGeometry x="534" y="430" width="20" height="50" as="geometry" />
        </mxCell>
        <mxCell id="rxWHiTYlrlsDjyi4Nc8P-3" value="" style="rounded=1;whiteSpace=wrap;html=1;fillColor=#dae8fc;strokeColor=#6c8ebf;direction=south;" vertex="1" parent="rxWHiTYlrlsDjyi4Nc8P-1">
          <mxGeometry x="400" y="420" width="144" height="20" as="geometry" />
        </mxCell>
        <mxCell id="rxWHiTYlrlsDjyi4Nc8P-4" value="" style="rounded=1;whiteSpace=wrap;html=1;fillColor=#d5e8d4;strokeColor=#82b366;" vertex="1" parent="rxWHiTYlrlsDjyi4Nc8P-1">
          <mxGeometry x="832" y="470" width="100" height="20" as="geometry" />
        </mxCell>
        <mxCell id="rxWHiTYlrlsDjyi4Nc8P-5" value="" style="rounded=1;whiteSpace=wrap;html=1;fillColor=#dae8fc;strokeColor=#6c8ebf;" vertex="1" parent="rxWHiTYlrlsDjyi4Nc8P-1">
          <mxGeometry x="544" y="470" width="144" height="20" as="geometry" />
        </mxCell>
        <mxCell id="rxWHiTYlrlsDjyi4Nc8P-6" value="" style="rounded=1;whiteSpace=wrap;html=1;fillColor=#dae8fc;strokeColor=#6c8ebf;" vertex="1" parent="rxWHiTYlrlsDjyi4Nc8P-1">
          <mxGeometry x="320" y="430" width="160" height="130" as="geometry" />
        </mxCell>
        <mxCell id="rxWHiTYlrlsDjyi4Nc8P-7" value="" style="rounded=0;whiteSpace=wrap;html=1;fillColor=#f8cecc;strokeColor=#b85450;" vertex="1" parent="rxWHiTYlrlsDjyi4Nc8P-1">
          <mxGeometry x="370" y="420" width="60" height="20" as="geometry" />
        </mxCell>
        <mxCell id="rxWHiTYlrlsDjyi4Nc8P-8" value="" style="rounded=1;whiteSpace=wrap;html=1;fillColor=#dae8fc;strokeColor=#6c8ebf;" vertex="1" parent="rxWHiTYlrlsDjyi4Nc8P-1">
          <mxGeometry x="688" y="470" width="144" height="20" as="geometry" />
        </mxCell>
        <mxCell id="rxWHiTYlrlsDjyi4Nc8P-9" value="" style="rounded=0;whiteSpace=wrap;html=1;fillColor=#f8cecc;strokeColor=#b85450;" vertex="1" parent="rxWHiTYlrlsDjyi4Nc8P-1">
          <mxGeometry x="822" y="460" width="20" height="40" as="geometry" />
        </mxCell>
        <mxCell id="rxWHiTYlrlsDjyi4Nc8P-10" value="z0" style="endArrow=classic;html=1;rounded=0;" edge="1" parent="rxWHiTYlrlsDjyi4Nc8P-1">
          <mxGeometry width="50" height="50" relative="1" as="geometry">
            <mxPoint x="400" y="410" as="sourcePoint" />
            <mxPoint x="400" y="370" as="targetPoint" />
          </mxGeometry>
        </mxCell>
        <mxCell id="rxWHiTYlrlsDjyi4Nc8P-12" value="144" style="endArrow=classic;startArrow=classic;html=1;rounded=0;" edge="1" parent="rxWHiTYlrlsDjyi4Nc8P-1">
          <mxGeometry width="50" height="50" relative="1" as="geometry">
            <mxPoint x="400" y="400" as="sourcePoint" />
            <mxPoint x="544" y="400" as="targetPoint" />
          </mxGeometry>
        </mxCell>
        <mxCell id="rxWHiTYlrlsDjyi4Nc8P-13" value="50" style="endArrow=classic;startArrow=classic;html=1;rounded=0;" edge="1" parent="rxWHiTYlrlsDjyi4Nc8P-1">
          <mxGeometry width="50" height="50" relative="1" as="geometry">
            <mxPoint x="574" y="480" as="sourcePoint" />
            <mxPoint x="574" y="430" as="targetPoint" />
          </mxGeometry>
        </mxCell>
        <mxCell id="rxWHiTYlrlsDjyi4Nc8P-16" value="z1" style="shape=orEllipse;perimeter=ellipsePerimeter;whiteSpace=wrap;html=1;backgroundOutline=1;fillColor=#f8cecc;strokeColor=#b85450;labelBackgroundColor=default;" vertex="1" parent="rxWHiTYlrlsDjyi4Nc8P-1">
          <mxGeometry x="380" y="410" width="40" height="40" as="geometry" />
        </mxCell>
        <mxCell id="rxWHiTYlrlsDjyi4Nc8P-17" value="z2" style="shape=orEllipse;perimeter=ellipsePerimeter;whiteSpace=wrap;html=1;backgroundOutline=1;fillColor=#f8cecc;strokeColor=#b85450;labelBackgroundColor=default;" vertex="1" parent="rxWHiTYlrlsDjyi4Nc8P-1">
          <mxGeometry x="524" y="460" width="40" height="40" as="geometry" />
        </mxCell>
        <mxCell id="rxWHiTYlrlsDjyi4Nc8P-18" value="" style="shape=orEllipse;perimeter=ellipsePerimeter;whiteSpace=wrap;html=1;backgroundOutline=1;fillColor=#f8cecc;strokeColor=#b85450;labelBackgroundColor=default;" vertex="1" parent="rxWHiTYlrlsDjyi4Nc8P-1">
          <mxGeometry x="668" y="460" width="40" height="40" as="geometry" />
        </mxCell>
        <mxCell id="rxWHiTYlrlsDjyi4Nc8P-19" value="T1" style="endArrow=none;html=1;rounded=0;exitX=0.502;exitY=0.495;exitDx=0;exitDy=0;exitPerimeter=0;entryX=0.498;entryY=0.495;entryDx=0;entryDy=0;entryPerimeter=0;" edge="1" parent="rxWHiTYlrlsDjyi4Nc8P-1" source="rxWHiTYlrlsDjyi4Nc8P-16" target="rxWHiTYlrlsDjyi4Nc8P-17">
          <mxGeometry width="50" height="50" relative="1" as="geometry">
            <mxPoint x="490" y="420" as="sourcePoint" />
            <mxPoint x="580" y="420" as="targetPoint" />
          </mxGeometry>
        </mxCell>
        <mxCell id="OyIT9SRn1_gmPi26Dz-v-0" value="A1" style="endArrow=none;html=1;rounded=0;exitX=0.502;exitY=0.495;exitDx=0;exitDy=0;exitPerimeter=0;entryX=0.498;entryY=0.495;entryDx=0;entryDy=0;entryPerimeter=0;" edge="1" parent="rxWHiTYlrlsDjyi4Nc8P-1">
          <mxGeometry width="50" height="50" relative="1" as="geometry">
            <mxPoint x="400" y="450" as="sourcePoint" />
            <mxPoint x="544" y="500" as="targetPoint" />
          </mxGeometry>
        </mxCell>
        <mxCell id="OyIT9SRn1_gmPi26Dz-v-1" value="" style="endArrow=none;dashed=1;html=1;dashPattern=1 3;strokeWidth=2;rounded=0;exitX=0.504;exitY=0.5;exitDx=0;exitDy=0;exitPerimeter=0;" edge="1" parent="rxWHiTYlrlsDjyi4Nc8P-1" source="rxWHiTYlrlsDjyi4Nc8P-16">
          <mxGeometry width="50" height="50" relative="1" as="geometry">
            <mxPoint x="610" y="350" as="sourcePoint" />
            <mxPoint x="640" y="430" as="targetPoint" />
          </mxGeometry>
        </mxCell>
        <mxCell id="OyIT9SRn1_gmPi26Dz-v-2" value="O1min" style="endArrow=none;html=1;rounded=0;strokeColor=default;curved=1;" edge="1" parent="rxWHiTYlrlsDjyi4Nc8P-1">
          <mxGeometry width="50" height="50" relative="1" as="geometry">
            <mxPoint x="490" y="460" as="sourcePoint" />
            <mxPoint x="500" y="430" as="targetPoint" />
            <Array as="points">
              <mxPoint x="500" y="450" />
            </Array>
          </mxGeometry>
        </mxCell>
      </root>
    </mxGraphModel>
  </diagram>
  <diagram name="Robot contraido" id="M0ph3BRO7jmvb6QjSnYe">
    <mxGraphModel dx="1177" dy="474" grid="1" gridSize="10" guides="1" tooltips="1" connect="1" arrows="1" fold="1" page="1" pageScale="1" pageWidth="1100" pageHeight="850" math="0" shadow="0">
      <root>
        <mxCell id="M7VPLjR3g-nJ-GxLjkU4-0" />
        <mxCell id="M7VPLjR3g-nJ-GxLjkU4-1" parent="M7VPLjR3g-nJ-GxLjkU4-0" />
        <mxCell id="M7VPLjR3g-nJ-GxLjkU4-6" value="" style="rounded=1;whiteSpace=wrap;html=1;fillColor=#dae8fc;strokeColor=#6c8ebf;" vertex="1" parent="M7VPLjR3g-nJ-GxLjkU4-1">
          <mxGeometry x="320" y="430" width="160" height="130" as="geometry" />
        </mxCell>
        <mxCell id="M7VPLjR3g-nJ-GxLjkU4-2" value="" style="rounded=1;whiteSpace=wrap;html=1;fillColor=#dae8fc;strokeColor=#6c8ebf;direction=south;" vertex="1" parent="M7VPLjR3g-nJ-GxLjkU4-1">
          <mxGeometry x="246" y="380" width="20" height="50" as="geometry" />
        </mxCell>
        <mxCell id="M7VPLjR3g-nJ-GxLjkU4-3" value="" style="rounded=1;whiteSpace=wrap;html=1;fillColor=#dae8fc;strokeColor=#6c8ebf;direction=north;" vertex="1" parent="M7VPLjR3g-nJ-GxLjkU4-1">
          <mxGeometry x="256" y="420" width="144" height="20" as="geometry" />
        </mxCell>
        <mxCell id="M7VPLjR3g-nJ-GxLjkU4-4" value="" style="rounded=1;whiteSpace=wrap;html=1;fillColor=#d5e8d4;strokeColor=#82b366;" vertex="1" parent="M7VPLjR3g-nJ-GxLjkU4-1">
          <mxGeometry x="544" y="370" width="100" height="20" as="geometry" />
        </mxCell>
        <mxCell id="M7VPLjR3g-nJ-GxLjkU4-5" value="" style="rounded=1;whiteSpace=wrap;html=1;fillColor=#dae8fc;strokeColor=#6c8ebf;" vertex="1" parent="M7VPLjR3g-nJ-GxLjkU4-1">
          <mxGeometry x="256" y="370" width="144" height="20" as="geometry" />
        </mxCell>
        <mxCell id="M7VPLjR3g-nJ-GxLjkU4-7" value="" style="rounded=0;whiteSpace=wrap;html=1;fillColor=#f8cecc;strokeColor=#b85450;" vertex="1" parent="M7VPLjR3g-nJ-GxLjkU4-1">
          <mxGeometry x="370" y="420" width="60" height="20" as="geometry" />
        </mxCell>
        <mxCell id="M7VPLjR3g-nJ-GxLjkU4-8" value="" style="rounded=1;whiteSpace=wrap;html=1;fillColor=#dae8fc;strokeColor=#6c8ebf;" vertex="1" parent="M7VPLjR3g-nJ-GxLjkU4-1">
          <mxGeometry x="400" y="370" width="144" height="20" as="geometry" />
        </mxCell>
        <mxCell id="M7VPLjR3g-nJ-GxLjkU4-9" value="" style="rounded=0;whiteSpace=wrap;html=1;fillColor=#f8cecc;strokeColor=#b85450;" vertex="1" parent="M7VPLjR3g-nJ-GxLjkU4-1">
          <mxGeometry x="534" y="360" width="20" height="40" as="geometry" />
        </mxCell>
        <mxCell id="M7VPLjR3g-nJ-GxLjkU4-13" value="50" style="endArrow=classic;startArrow=classic;html=1;rounded=0;" edge="1" parent="M7VPLjR3g-nJ-GxLjkU4-1">
          <mxGeometry width="50" height="50" relative="1" as="geometry">
            <mxPoint x="230" y="430" as="sourcePoint" />
            <mxPoint x="230" y="380" as="targetPoint" />
          </mxGeometry>
        </mxCell>
        <mxCell id="M7VPLjR3g-nJ-GxLjkU4-14" value="144" style="endArrow=classic;startArrow=classic;html=1;rounded=0;" edge="1" parent="M7VPLjR3g-nJ-GxLjkU4-1">
          <mxGeometry width="50" height="50" relative="1" as="geometry">
            <mxPoint x="256" y="460" as="sourcePoint" />
            <mxPoint x="400" y="460" as="targetPoint" />
          </mxGeometry>
        </mxCell>
        <mxCell id="M7VPLjR3g-nJ-GxLjkU4-16" value="z1" style="shape=orEllipse;perimeter=ellipsePerimeter;whiteSpace=wrap;html=1;backgroundOutline=1;fillColor=#f8cecc;strokeColor=#b85450;labelBackgroundColor=default;" vertex="1" parent="M7VPLjR3g-nJ-GxLjkU4-1">
          <mxGeometry x="380" y="410" width="40" height="40" as="geometry" />
        </mxCell>
        <mxCell id="M7VPLjR3g-nJ-GxLjkU4-17" value="z2" style="shape=orEllipse;perimeter=ellipsePerimeter;whiteSpace=wrap;html=1;backgroundOutline=1;fillColor=#f8cecc;strokeColor=#b85450;labelBackgroundColor=default;" vertex="1" parent="M7VPLjR3g-nJ-GxLjkU4-1">
          <mxGeometry x="236" y="360" width="40" height="40" as="geometry" />
        </mxCell>
        <mxCell id="M7VPLjR3g-nJ-GxLjkU4-18" value="" style="shape=orEllipse;perimeter=ellipsePerimeter;whiteSpace=wrap;html=1;backgroundOutline=1;fillColor=#f8cecc;strokeColor=#b85450;labelBackgroundColor=default;" vertex="1" parent="M7VPLjR3g-nJ-GxLjkU4-1">
          <mxGeometry x="380" y="360" width="40" height="40" as="geometry" />
        </mxCell>
        <mxCell id="M7VPLjR3g-nJ-GxLjkU4-19" value="T1" style="endArrow=none;html=1;rounded=0;exitX=0.502;exitY=0.495;exitDx=0;exitDy=0;exitPerimeter=0;entryX=0.498;entryY=0.495;entryDx=0;entryDy=0;entryPerimeter=0;" edge="1" parent="M7VPLjR3g-nJ-GxLjkU4-1" source="M7VPLjR3g-nJ-GxLjkU4-16" target="M7VPLjR3g-nJ-GxLjkU4-17">
          <mxGeometry width="50" height="50" relative="1" as="geometry">
            <mxPoint x="490" y="420" as="sourcePoint" />
            <mxPoint x="580" y="420" as="targetPoint" />
          </mxGeometry>
        </mxCell>
        <mxCell id="M7VPLjR3g-nJ-GxLjkU4-20" value="144" style="endArrow=classic;startArrow=classic;html=1;rounded=0;endFill=1;startFill=1;" edge="1" parent="M7VPLjR3g-nJ-GxLjkU4-1">
          <mxGeometry width="50" height="50" relative="1" as="geometry">
            <mxPoint x="256" y="350" as="sourcePoint" />
            <mxPoint x="400" y="350" as="targetPoint" />
          </mxGeometry>
        </mxCell>
        <mxCell id="M7VPLjR3g-nJ-GxLjkU4-22" value="" style="endArrow=none;dashed=1;html=1;dashPattern=1 3;strokeWidth=2;rounded=0;exitX=0.504;exitY=0.5;exitDx=0;exitDy=0;exitPerimeter=0;" edge="1" parent="M7VPLjR3g-nJ-GxLjkU4-1" source="M7VPLjR3g-nJ-GxLjkU4-16">
          <mxGeometry width="50" height="50" relative="1" as="geometry">
            <mxPoint x="610" y="350" as="sourcePoint" />
            <mxPoint x="160" y="430" as="targetPoint" />
          </mxGeometry>
        </mxCell>
        <mxCell id="M7VPLjR3g-nJ-GxLjkU4-23" value="O1max" style="endArrow=none;html=1;rounded=0;strokeColor=default;curved=1;" edge="1" parent="M7VPLjR3g-nJ-GxLjkU4-1">
          <mxGeometry width="50" height="50" relative="1" as="geometry">
            <mxPoint x="286" y="430" as="sourcePoint" />
            <mxPoint x="290" y="390" as="targetPoint" />
            <Array as="points">
              <mxPoint x="276" y="410" />
            </Array>
          </mxGeometry>
        </mxCell>
      </root>
    </mxGraphModel>
  </diagram>
</mxfile>
